<!-- Generated by IcoMoon.io -->
<svg version="1.1" xmlns="http://www.w3.org/2000/svg" width="1024" height="1024" viewBox="0 0 1024 1024">
<g id="icomoon-ignore">
</g>
<path d="M238.976 211.168c-10.528 3.712-24.224 17.728-27.904 28.512-1.734 4.908-2.737 10.568-2.737 16.462 0 5.789 0.967 11.352 2.747 16.536l-0.107-0.358c2.528 7.648 13.28 18.944 118.176 124.064l115.392 115.616-115.392 115.616c-104.896 105.12-115.648 116.416-118.176 124.064-6.112 18.592-2.048 36.032 11.648 49.696 13.664 13.696 31.104 17.76 49.696 11.648 7.648-2.528 18.944-13.28 124.064-118.176l115.616-115.392 115.616 115.392c105.12 104.896 116.416 115.648 124.064 118.176 18.592 6.112 36.032 2.048 49.696-11.648 13.696-13.664 17.76-31.104 11.648-49.696-2.528-7.648-13.28-18.944-118.176-124.064l-115.392-115.616 115.392-115.616c104.896-105.12 115.648-116.416 118.176-124.064 6.112-18.592 2.048-36.032-11.648-49.696-13.664-13.696-31.104-17.76-49.696-11.648-7.648 2.528-18.944 13.28-124.064 118.176l-115.616 115.392-115.616-115.392c-105.12-104.896-116.416-115.648-124.064-118.176-4.894-1.6-10.526-2.523-16.374-2.523-6.068 0-11.904 0.993-17.354 2.827l0.384-0.112z"></path>
</svg>
